<svg id="Layer_1" data-name="Layer 1" xmlns="http://www.w3.org/2000/svg" viewBox="0 0 364.82 372.33"><defs><style>.cls-1{fill:#d7282a;}.cls-1,.cls-2,.cls-3,.cls-4{fill-rule:evenodd;}.cls-2{fill:#45ac43;}.cls-3{fill:#5d7fbe;}.cls-4{fill:#f4c300;}</style></defs><path class="cls-1" d="M20.06,102.69C27.66,86,38.39,71.41,51,58.22c28.48-29.84,63-48.95,103.76-55.47C211.85-6.38,263,7.09,307.15,45.13c2.79,2.41,3.48,3.81.45,6.78C292,67.18,276.66,82.7,261.22,98.13c-1.58,1.58-2.65,3.51-5.46.94-38.9-35.64-102.39-35.23-143.71,3.2a118.79,118.79,0,0,0-30.89,47.14c-1-.63-2-1.19-2.89-1.89Z"/><path class="cls-2" d="M80.7,222.19c5.58,14.16,12.51,27.55,22.8,38.92q39.28,43.38,97.53,37.36c18.06-1.88,34.53-8,49.91-17.4,1.47,1.32,2.88,2.73,4.43,3.95q27,21.08,54.05,42.11a154.71,154.71,0,0,1-69.72,38.1C177.48,381,120.13,371,69.2,330.83a173,173,0,0,1-49.29-61.44Z"/><path class="cls-3" d="M309.42,327.13q-27-21.06-54.05-42.11c-1.55-1.22-3-2.63-4.43-3.95,12.2-9.31,22.38-20.32,29.06-34.31a118.76,118.76,0,0,0,6.31-17.32c1.22-4.07.84-5.66-4.19-5.61-30,.25-60,.12-90,.12-6.35,0-6.35,0-6.35-6.57,0-20.33.09-40.65-.09-61,0-3.92.65-5.42,5.06-5.41q83,.24,166,0c3,0,4.86.22,5.38,3.85,6.88,48.38,1.36,94.6-24,137.3C330.39,305.26,321.08,317.19,309.42,327.13Z"/><path class="cls-4" d="M80.7,222.19l-60.79,47.2C10,251,4.31,231.23,1.64,210.64-3,175,2.1,140.66,17.23,107.93c.83-1.8,1.88-3.49,2.83-5.24l58.21,44.83c.91.7,1.93,1.26,2.89,1.89C73,173.62,73.44,197.89,80.7,222.19Z"/></svg>